<?xml version="1.0" encoding="UTF-8"?>
<svg width="1302px" height="493px" viewBox="0 0 1302 493" version="1.1" xmlns="http://www.w3.org/2000/svg" xmlns:xlink="http://www.w3.org/1999/xlink">
    <!-- Generator: Sketch 48.1 (47250) - http://www.bohemiancoding.com/sketch -->
    <title>wave-hero-background</title>
    <desc>Created with Sketch.</desc>
    <defs>
        <radialGradient cx="233.41578%" cy="220.266392%" fx="233.41578%" fy="220.266392%" r="147.799618%" gradientTransform="translate(2.334158,2.202664),scale(0.357923,1.000000),translate(-2.334158,-2.202664)" id="radialGradient-1">
            <stop stop-color="#A550F0" offset="0%"></stop>
            <stop stop-color="#0269FD" offset="2.91250472%"></stop>
            <stop stop-color="#0369FC" offset="4.5053357%"></stop>
            <stop stop-color="#A550F0" offset="6.79408482%"></stop>
            <stop stop-color="#A550F0" offset="25.4821693%"></stop>
            <stop stop-color="#8843C5" offset="100%"></stop>
        </radialGradient>
    </defs>
    <g id="Page-1" stroke="none" stroke-width="1" fill="none" fill-rule="evenodd">
        <g id="wave-hero-background" fill-rule="nonzero">
            <path d="M0,-2.84217094e-14 L1300,-2.84217094e-14 C1299.84369,99.0658466 1299.84369,259.045733 1300,479.93966 C939.379367,522.288692 978.893507,439.694844 650,450.952014 C321.106493,462.209185 306.589562,511.200484 0,450.952014 C1,327.508342 1,177.191004 0,-2.84217094e-14 Z" id="Wave" fill="#C4C4C4" opacity="0.15"></path>
            <path d="M1.000768,0 L925.701254,0 L1302,0 C1302,223.960943 1302,366.849893 1302,428.66685 C1221.6052,416.744841 1147.81368,399.334739 958.281773,416.744841 C768.749862,434.154944 701.824307,503.789515 426.321988,437.77475 C242.653775,393.764907 100.880035,397.003272 1.000768,447.489845 L1.000768,0 Z" id="Wave" fill="url(#radialGradient-1)" transform="translate(651.500384, 232.828869) scale(-1, 1) translate(-651.500384, -232.828869) "></path>
        </g>
    </g>
</svg>