<?xml version="1.0" encoding="UTF-8"?>
<svg width="1299px" height="135px" viewBox="0 0 1299 135" version="1.1" xmlns="http://www.w3.org/2000/svg" xmlns:xlink="http://www.w3.org/1999/xlink">
    <!-- Generator: Sketch 48.2 (47327) - http://www.bohemiancoding.com/sketch -->
    <title>wave-header</title>
    <desc>Created with Sketch.</desc>
    <defs>
        <rect id="path-1" x="0" y="0" width="1299" height="146"></rect>
        <radialGradient cx="233.41578%" cy="220.266392%" fx="233.41578%" fy="220.266392%" r="147.799618%" gradientTransform="translate(2.334158,2.202664),scale(0.096080,1.000000),translate(-2.334158,-2.202664)" id="radialGradient-3">
            <stop stop-color="#A550F0" offset="0%"></stop>
            <stop stop-color="#0269FD" offset="2.91250472%"></stop>
            <stop stop-color="#0369FC" offset="4.5053357%"></stop>
            <stop stop-color="#A550F0" offset="6.79408482%"></stop>
            <stop stop-color="#A550F0" offset="25.4821693%"></stop>
            <stop stop-color="#8843C5" offset="100%"></stop>
        </radialGradient>
    </defs>
    <g id="Page-1" stroke="none" stroke-width="1" fill="none" fill-rule="evenodd">
        <g id="wave-header">
            <mask id="mask-2" fill="white">
                <use xlink:href="#path-1"></use>
            </mask>
            <g id="Rectangle" opacity="0.546931612"></g>
            <path d="M-2,0 L1298,0 C1297.84369,26.6567777 1297.84369,69.7043912 1298,129.142841 C988.95958,139.998481 1032.96657,114.449017 699.50349,123.93182 C366.040412,133.414622 388.605992,144.317251 -2,121.342804 C-1,88.1264065 -1,47.6788052 -2,0 Z" id="Wave" fill="#C4C4C4" fill-rule="nonzero" opacity="0.15" mask="url(#mask-2)"></path>
            <path d="M-1,0 L923.701033,0 L1300,0 C1300,60.1195162 1300,98.476269 1300,115.070259 C1219.60515,111.869944 1145.81359,107.19642 956.281571,111.869944 C766.749548,116.543469 699.823954,135.235999 424.321472,117.515161 C240.65315,105.701268 98.879326,106.570567 -1,120.123056 L-1,0 Z" id="Wave" fill="url(#radialGradient-3)" fill-rule="nonzero" mask="url(#mask-2)" transform="translate(649.500000, 62.500000) scale(-1, 1) translate(-649.500000, -62.500000) "></path>
        </g>
    </g>
</svg>