<svg xmlns="http://www.w3.org/2000/svg" viewBox="0 0 265.81 104.92"><defs><style>.cls-1{fill:none;stroke:#fff;stroke-linecap:round;stroke-miterlimit:10;stroke-width:4px;}.cls-2{font-size:47.67px;font-family:Martel-Heavy, Martel Heavy;}.cls-2,.cls-3{fill:#fff;}.cls-3{font-size:28.44px;font-family:Baskerville-Italic, Baskerville;font-style:italic;}.cls-4{letter-spacing:-0.01em;}</style></defs><title>3</title><g id="Layer_2" data-name="Layer 2"><g id="Layer_1-2" data-name="Layer 1"><path class="cls-1" d="M51.26,16.31,23.2,25.41a1.58,1.58,0,0,0-1.06,1.5V46.08c0,24.8,3.67,33.86,28,46.14a1.61,1.61,0,0,0,1.44,0c24.35-12.28,28-21.34,28-46.14V26.91a1.59,1.59,0,0,0-1.07-1.5L61,19.8,27.09,7.19"/><path class="cls-1" d="M26.61,7.37,2.93,16.31A1.38,1.38,0,0,0,2,17.62V34.35C2,56,5.21,63.92,26.47,74.63a1.35,1.35,0,0,0,.62.15,1.39,1.39,0,0,0,.63-.15C49,63.92,52.19,56,52.19,34.35V17.62a1.38,1.38,0,0,0-.93-1.31"/><text class="cls-2" transform="translate(93.84 41.9)">Safe</text><text class="cls-2" transform="translate(131.62 91.05)">Child</text><text class="cls-3" transform="translate(100.23 72.95)"><tspan class="cls-4">f</tspan><tspan x="6.83" y="0">or</tspan></text></g></g></svg>